<?xml version="1.0" encoding="UTF-8"?>
<svg id="plantadOIS" xmlns="http://www.w3.org/2000/svg" viewBox="0 0 100 100">
  <defs>
    <style>
      .cls-1 {
        fill: #fff;
      }

      .cls-2 {
        fill: #387c5f;
      }

      .cls-3 {
        fill: #7c4a1a;
      }

      .cls-4 {
        fill: #5d3714;
        opacity: .62;
      }
    </style>
  </defs>
  <rect class="cls-1" x="0" y="0" width="100" height="100"/>
  <g>
    <path class="cls-2" d="M73.64,58.62c-1.33,0-1.92-.76-1.95-.8-.03-.04-.03-.1,0-.15,.05-.06,1.23-1.46,2.44-1.7,1.21-.24,3.53,.68,3.63,.72,.04,.02,.07,.05,.07,.09,0,.04-.01,.08-.05,.11-.08,.06-1.94,1.45-3.62,1.69-.19,.03-.37,.04-.54,.04Z"/>
    <path class="cls-2" d="M27.84,62.04c-.09,0-.19,0-.3-.02-.92-.13-1.94-.89-1.98-.92-.03-.03-.05-.07-.05-.11,0-.04,.03-.08,.07-.09,.05-.02,1.33-.53,2-.39,.68,.14,1.33,.91,1.35,.94,.04,.04,.04,.1,0,.15-.02,.02-.35,.45-1.1,.45Z"/>
    <path class="cls-2" d="M58.32,62.8c-.53,0-.82-.26-.84-.27-.04-.04-.05-.1-.02-.15,.02-.04,.52-.92,1.16-1.18,.63-.26,1.98,0,2.03,.01,.04,0,.08,.04,.09,.08s0,.09-.03,.12c-.04,.04-.9,.98-1.78,1.28-.23,.08-.44,.11-.62,.11Z"/>
    <g>
      <path class="cls-2" d="M59.31,74.38s-.02,0-.03,0c-.06-.01-.1-.08-.09-.14,.09-.38,8.83-37.81,16.61-53.22,1.7-3.37,3.26-5.49,4.63-6.31-.12-.42-.51-2.08,.77-3.35,1.45-1.45,3.34-1.23,3.42-1.22,.05,0,.09,.04,.1,.09,.02,.1,.47,2.46-.99,3.68-1.34,1.12-2.87,1.01-3.14,.98-1.34,.77-2.89,2.86-4.59,6.23-7.76,15.39-16.5,52.79-16.59,53.17-.01,.05-.06,.09-.12,.09Z"/>
      <path class="cls-2" d="M50.88,72.44c-.06,0-.11-.04-.12-.1-.07-.48-7.41-48.49-13.45-50.58-.06-.02-.09-.09-.07-.15,.02-.06,.09-.09,.15-.07,2.6,.9,5.68,9.72,9.16,26.23,2.58,12.26,4.43,24.42,4.45,24.54,0,.06-.03,.13-.1,.14,0,0-.01,0-.02,0Z"/>
      <path class="cls-2" d="M55.02,74.37s-.1-.03-.12-.07c-.2-.37-.42-9.56-.2-18.5,.21-8.34,.86-18.56,2.75-19.99,.1-.13,.81-.99,1.96-1.22,1.22-.24,1.96,.23,1.99,.26,.05,.03,.07,.1,.04,.15-.03,.06-.75,1.48-1.98,1.73-1.03,.21-1.71-.42-1.94-.66-1.37,1.25-2.28,8.2-2.58,19.64-.24,9.18,.01,17.9,.16,18.48,0,.01,.02,.02,.02,.04,.02,.06,0,.13-.07,.15-.01,0-.02,0-.04,0Z"/>
      <path class="cls-2" d="M68.58,73.05s-.01,0-.02,0c-.06,0-.11-.07-.1-.14,.01-.07,1.12-7.21,2.91-14.52,2.39-9.74,4.81-15.18,7.18-16.17,.02-.25,.13-.46,.34-.61,1.2-.9,5.33,.29,5.51,.34,.04,.01,.07,.04,.08,.08s0,.08-.03,.11c-.09,.09-2.2,2.18-3.67,1.93-1.26-.21-1.98-1.3-2.17-1.63-5.53,2.37-9.88,30.21-9.92,30.49,0,.06-.06,.1-.12,.1Z"/>
      <path class="cls-2" d="M38.06,71.88s-.01,0-.02,0c-.06,0-.11-.07-.1-.13,.47-3.67-.76-10.68-3.66-20.86-2.39-8.39-5.4-17.1-7.5-22.93-1.12-3.1-1.92-5.22-2.1-5.69-.51,.13-2.72,.66-4.22,.45-1.7-.24-3.12-2.8-3.18-2.91-.02-.03-.02-.07,0-.1s.04-.06,.07-.07c.08-.03,1.97-.72,4.59,0,2.56,.7,2.9,2.28,2.93,2.46,.07,.18,.91,2.4,2.13,5.78,2.1,5.83,5.11,14.55,7.5,22.95,2.91,10.21,4.14,17.26,3.67,20.96,0,.06-.06,.1-.12,.1Z"/>
      <path class="cls-2" d="M77.25,43.38s-.07-.02-.1-.05c-.05-.07-1.12-1.61-1.44-3.13-.28-1.33,.17-2.62,.77-2.98,.03-.02,.06-.02,.1-.01,.03,.01,.06,.03,.07,.06,.04,.08,.86,1.95,.96,2.64,.12,.83-.22,3.26-.24,3.36,0,.05-.04,.09-.09,.1,0,0-.02,0-.03,0Z"/>
      <path class="cls-2" d="M72.5,53.82c-.29,0-.97-.18-2.1-1.5-1.46-1.71-1.66-2.17-1.66-2.18-.02-.04,0-.09,.02-.12,.03-.03,.08-.05,.12-.04,.12,.03,2.93,.79,3.74,2.31,.25,.46,.28,.95,.11,1.44-.01,.03-.04,.06-.07,.07-.02,0-.07,.03-.16,.03Zm.12-.14h0Z"/>
      <path class="cls-2" d="M77.25,23.19c-1.5,0-1.77-1-1.78-1.04,0-.04,0-.07,.02-.1,.04-.05,1-1.23,2.23-1.23s2.42,1.41,2.47,1.47c.02,.03,.03,.06,.03,.1,0,.04-.03,.07-.06,.08-.06,.03-1.47,.73-2.9,.73Z"/>
      <path class="cls-2" d="M68.62,40.17s-.03,0-.04,0c-.08-.03-1.98-.82-3.91-3.51-1.94-2.72-.99-5.86-.98-5.89,0-.03,.03-.06,.06-.07s.06-.02,.09,0c.03,0,2.56,1.01,4.11,3.33s.82,5.92,.79,6.07c0,.03-.03,.06-.06,.08-.02,0-.04,.01-.06,.01Z"/>
      <path class="cls-2" d="M66.45,50.09c-.53,0-.81-.12-.83-.13-.03-.01-.05-.04-.06-.07s0-.06,0-.09c0-.02,.93-1.88,2.83-3.31,1.7-1.27,3.06-1.06,3.5-.99,.06,0,.1,.02,.13,.02,.06,0,.13,.04,.15,.13,.1,.42-.78,2.57-2.95,3.65-1.26,.63-2.19,.79-2.78,.79Z"/>
      <path class="cls-2" d="M52.08,42.19c-1.26,0-2.21-2.58-2.25-2.69-.01-.04,0-.08,.01-.11,.02-.03,.06-.05,.1-.05,.01,0,1.2,0,2.83-.24,1.72-.25,3.15,2.09,3.21,2.19,.02,.03,.02,.07,0,.11s-.04,.06-.08,.07c-.11,.03-2.64,.72-3.83,.72Z"/>
      <path class="cls-2" d="M56.81,49.84c-1.34,0-1.73-.55-1.75-.58-.03-.05-.02-.12,.02-.16,.05-.04,1.22-.97,2.18-1.21,.97-.24,3.05,.22,3.14,.24,.04,0,.07,.04,.09,.08s0,.08-.02,.11c-.04,.05-1,1.23-2.93,1.47-.28,.03-.52,.05-.74,.05Z"/>
      <path class="cls-2" d="M35.39,21.97c-.48,0-.94-.06-1.2-.23-.75-.5-.99-1.92-1-1.98,0-.06,.03-.12,.08-.13,.07-.02,1.72-.48,2.93,0,1.25,.5,1.26,1.95,1.26,2.01,0,.06-.04,.11-.1,.12-.06,.01-1.08,.21-1.98,.21Z"/>
      <path class="cls-2" d="M37.39,21.78s0,0,0,0c-.04,0-.07-.02-.09-.05,0,0-.51-.73-1.21-1.43-.74-.74-.52-3.31-.51-3.42,0-.04,.02-.07,.05-.09,.03-.02,.07-.03,.1-.02,.1,.03,2.45,.75,2.7,2.23,.24,1.47-.9,2.68-.95,2.73-.02,.02-.05,.04-.09,.04Z"/>
      <path class="cls-2" d="M39.02,28.15c-.55,0-1.14-.05-1.7-.22-1.67-.48-2.17-.96-2.19-.98-.03-.03-.04-.07-.03-.11,0-.04,.03-.07,.07-.09,.07-.03,1.71-.72,3.39-.48,1.69,.24,2.65,1.42,2.69,1.47,.03,.04,.03,.08,.01,.13-.02,.04-.06,.07-.11,.07-.03,0-.14,.02-.27,.04-.38,.06-1.07,.17-1.86,.17Z"/>
      <path class="cls-2" d="M43.61,34.93c-.14,0-.23,0-.24,0-.06,0-.1-.05-.11-.11,0-.06-.08-1.6,1.14-2.57,1.21-.96,2.63-.98,2.69-.98,.03,0,.07,.01,.09,.04s.03,.06,.03,.09c0,.07-.25,1.71-1.22,2.68-.76,.76-1.89,.85-2.38,.85Z"/>
      <path class="cls-2" d="M41.12,41.81c-.32,0-.63-.03-.95-.1-2.16-.48-3.13-2.12-3.17-2.19-.02-.03-.02-.07,0-.1,.01-.03,.04-.06,.07-.07,.1-.04,2.42-.96,3.86-.72,1.43,.24,3.84,1.82,3.94,1.89,.03,.02,.05,.06,.05,.1,0,.04-.02,.08-.06,.1-.09,.05-1.88,1.09-3.74,1.09Z"/>
      <path class="cls-2" d="M46.75,49.44s-.06-.01-.08-.03c-.03-.03-.04-.06-.04-.1,.01-.1,.35-2.54,1.07-3.96,.74-1.47,2.87-1.49,2.96-1.49,.07,0,.12,.05,.12,.12,0,.11-.01,2.67-.98,3.87-.97,1.21-2.94,1.58-3.03,1.59,0,0-.01,0-.02,0Z"/>
      <path class="cls-2" d="M27.37,28.89s-.03,0-.04,0c-.04-.02-.07-.06-.07-.1,0-.13-.23-3.15,.74-4.36,.96-1.2,1.69-1.45,1.72-1.46,.06-.02,.12,0,.14,.06,.03,.06,.73,1.48,.48,2.46-.24,.97-2.78,3.29-2.89,3.38-.02,.02-.05,.03-.08,.03Z"/>
      <path class="cls-2" d="M26.18,35.56c-1.69,0-4.01-2.09-4.11-2.19-.03-.02-.04-.06-.04-.1,0-.04,.02-.07,.05-.09,.06-.04,1.48-.97,3.39-.97s3.57,1.39,3.64,1.45c.05,.04,.05,.11,.02,.16-.04,.06-1,1.47-2.69,1.71-.08,.01-.17,.02-.26,.02Z"/>
      <path class="cls-2" d="M31.65,41.72s-.04,0-.06-.02c-.03-.02-.05-.06-.05-.1,0-.09,.01-2.2,.98-3.17s1.92-1.21,1.96-1.22c.05-.01,.1,0,.13,.05,.03,.05,.74,1.25,.24,2.25s-3.04,2.14-3.14,2.19c-.02,0-.03,.01-.05,.01Z"/>
      <path class="cls-2" d="M28.09,47.89c-1.22,0-3.09-1.62-3.17-1.69-.03-.03-.04-.07-.04-.1s.03-.07,.06-.09c.01,0,1.45-.72,3.09-1.43,1.7-.73,4.73,.89,4.85,.95,.04,.02,.06,.06,.06,.1s-.02,.08-.06,.1c-.15,.09-3.6,2.15-4.81,2.15Z"/>
      <path class="cls-2" d="M34.97,52.4s-.05,0-.08-.03c-.03-.03-.05-.06-.04-.1,0-.1,.26-2.45,1.5-2.95,1.18-.47,2.14-.72,2.15-.72,.03,0,.07,0,.09,.02,.03,.02,.05,.05,.05,.08,.01,.06,.24,1.49-.51,2.24s-3.04,1.43-3.14,1.45c-.01,0-.02,0-.03,0Z"/>
      <path class="cls-2" d="M74.33,35.2c-1.59,0-3.71-.61-3.82-.64-.05-.01-.08-.06-.09-.1,0-.05,.02-.1,.07-.12,.03-.01,2.93-1.4,4.11-1.87,1.22-.49,3.55,.44,3.65,.48,.04,.01,.06,.05,.07,.09,0,.04,0,.08-.03,.11-.06,.06-1.46,1.45-2.9,1.93-.29,.1-.66,.14-1.06,.14Z"/>
      <path class="cls-2" d="M30.58,69.86c-.06,0-.11-.04-.12-.1,0-.04-.61-3.9-1.57-7.85-1.24-5.06-2.53-8.03-3.72-8.6-.14,.22-.53,.76-1.19,.87-.82,.14-1.98-1.01-2.03-1.06-.03-.03-.04-.07-.03-.11s.04-.07,.08-.08c.24-.07,2.37-.67,3.03-.18,.11,.09,.18,.2,.2,.34,3.08,1.37,5.37,16.01,5.47,16.64,0,.06-.03,.13-.1,.14,0,0-.01,0-.02,0Z"/>
      <path class="cls-2" d="M25.89,53.79s-.02,0-.03,0c-.05-.01-.08-.05-.09-.1,0-.06-.19-1.38-.13-1.83,.05-.38,.5-1.4,.52-1.45,.01-.03,.04-.05,.07-.06,.03-.01,.07,0,.1,.01,.34,.2,.6,.92,.44,1.67-.18,.83-.77,1.68-.79,1.71-.02,.03-.06,.05-.1,.05Z"/>
      <path class="cls-2" d="M57.38,70.96c-.06,0-.12-.05-.12-.11-.02-.63-.49-15.45,2.28-17.37,0-.14,.04-.26,.14-.37,.56-.61,2.76-.41,3.01-.39,.04,0,.08,.03,.1,.07,.02,.04,.01,.08,0,.12-.04,.06-.97,1.4-1.8,1.42-.01,0-.02,0-.03,0-.65,0-1.12-.44-1.3-.63-1.07,.78-1.78,3.94-2.06,9.14-.22,4.06-.09,7.96-.09,8,0,.07-.05,.12-.11,.12h0Z"/>
      <path class="cls-2" d="M43.64,70.67c-.06,0-.12-.05-.12-.12,0-.11-.3-10.95-1.57-15.64-.27-.99-.56-1.64-.87-1.93-.13-.02-.54-.1-.84-.48-.37-.46-.09-1.13-.08-1.16,.02-.05,.06-.08,.12-.07,.02,0,.6,.05,.94,.57,.27,.41,.14,.82,.06,1,.33,.33,.63,.99,.9,2,1.28,4.72,1.58,15.58,1.58,15.69,0,.07-.05,.12-.12,.12h0Z"/>
    </g>
    <path class="cls-2" d="M34.14,74.71c-.06,0-.12-.05-.12-.12,0-.11-.3-10.95-1.57-15.64-.27-.99-.56-1.64-.87-1.93-.13-.02-.54-.1-.84-.48-.37-.46-.09-1.13-.08-1.16,.02-.05,.06-.08,.12-.07,.02,0,.6,.05,.94,.57,.27,.41,.14,.82,.06,1,.33,.33,.63,.99,.9,2,1.28,4.72,1.58,15.58,1.58,15.69,0,.07-.05,.12-.12,.12h0Z"/>
    <path class="cls-2" d="M65.82,75.19h0c-.07,0-.12-.06-.12-.12,0-.11,.3-10.98,1.58-15.69,.27-1.01,.57-1.67,.9-2-.08-.18-.22-.59,.06-1,.34-.52,.92-.57,.94-.57,.05,0,.1,.03,.12,.07,.01,.03,.29,.7-.08,1.16-.3,.38-.71,.46-.84,.48-.31,.29-.6,.93-.87,1.93-1.27,4.69-1.57,15.53-1.57,15.64,0,.06-.05,.12-.12,.12Z"/>
    <path class="cls-3" d="M56.42,86.46h-10.95c-22.59,0-19.76,.93-19.76-19.76h0s50.48,0,50.48,0h0c0,21.63,3.53,19.76-19.76,19.76Z"/>
    <path class="cls-4" d="M76.18,65.26v4.04c-12.66,.83-40.56,2.42-50.48,2.83v-6.87h50.48Z"/>
    <rect class="cls-3" x="21.53" y="63.42" width="59.18" height="4.87" rx="2.44" ry="2.44"/>
  </g>
</svg>