<?xml version="1.0" encoding="UTF-8"?>
<svg id="coelho" xmlns="http://www.w3.org/2000/svg" viewBox="0 0 100 100">
  <defs>
    <style>
      .cls-1 {
        fill: #fff;
      }
    </style>
  </defs>
  <rect class="cls-1" x="0" y="0" width="100" height="100"/>
  <g>
    <path d="M50.76,58.85c2.39,0,2.92,1.06,2.92,1.33,0,.53-2.39,1.86-2.92,1.86s-2.92-1.33-2.92-1.86,1.06-1.33,2.92-1.33Z"/>
    <path d="M50.76,89.63c-12.29,0-22.29-10.95-22.29-24.41s10-24.41,22.29-24.41,22.29,10.95,22.29,24.41-10,24.41-22.29,24.41Zm0-47.76c-11.71,0-21.23,10.48-21.23,23.35s9.52,23.35,21.23,23.35,21.23-10.48,21.23-23.35-9.52-23.35-21.23-23.35Z"/>
    <circle cx="59.79" cy="54.6" r="2.65"/>
    <circle cx="42.8" cy="55.13" r="2.65"/>
    <path d="M34.84,49.29c-.11,0-.22-.03-.32-.11-.22-.17-.28-.48-.13-.71,.18-.8-2.05-5.07-4.02-8.84-4.56-8.74-10.24-19.62-8.2-24.33,.46-1.06,1.28-1.76,2.44-2.08,1.42-.39,2.78-.1,4.05,.86,7.19,5.46,9.36,31.25,9.36,31.49,0,.29-.24,.53-.53,.53s-.53-.24-.53-.53c0-1.63-2.49-25.74-8.94-30.65-1.01-.77-2.03-.99-3.12-.69-.85,.24-1.42,.72-1.75,1.48-1.84,4.25,4.18,15.78,8.17,23.42,3.54,6.78,4.62,9.04,3.95,9.94-.1,.14-.26,.21-.42,.21Zm-.45-.8h0s0,0,0,0Zm.03-.05h0s0,0,0,0Z"/>
    <path d="M64.59,47.18c-.17,0-.34-.08-.45-.22-.66-.88,.29-3.13,3.39-9.88,3.58-7.81,9-19.61,6.97-23.98-.37-.79-.97-1.29-1.83-1.53-1.09-.31-2.12-.08-3.12,.69-2.69,2.04-5.08,7.85-6.92,16.81-1.4,6.81-2.02,13.36-2.02,13.84,0,.29-.24,.53-.53,.53s-.53-.24-.53-.53c0-.24,2.17-26.03,9.36-31.49,1.27-.97,2.63-1.26,4.05-.86,1.16,.32,2.01,1.03,2.51,2.11,2.23,4.81-3.09,16.4-6.97,24.87-1.74,3.8-3.72,8.1-3.48,8.84,.18,.23,.12,.55-.12,.72-.09,.07-.2,.1-.3,.1Z"/>
    <g>
      <line x1="63.5" y1="61.5" x2="79.95" y2="48.76"/>
      <path d="M63.5,61.7c-.06,0-.12-.03-.16-.08-.07-.09-.05-.21,.04-.28l16.45-12.74c.09-.07,.21-.05,.28,.04,.07,.09,.05,.21-.04,.28l-16.45,12.74s-.08,.04-.12,.04Z"/>
    </g>
    <g>
      <line x1="64.03" y1="64.15" x2="78.89" y2="58.32"/>
      <path d="M64.03,64.35c-.08,0-.15-.05-.19-.13-.04-.1,0-.22,.11-.26l14.86-5.84c.1-.04,.22,.01,.26,.11,.04,.1,0,.22-.11,.26l-14.86,5.84s-.05,.01-.07,.01Z"/>
    </g>
    <g>
      <line x1="64.56" y1="65.75" x2="82.07" y2="67.34"/>
      <path d="M82.07,67.54s-.01,0-.02,0l-17.51-1.59c-.11-.01-.19-.11-.18-.22,0-.11,.1-.19,.22-.18l17.51,1.59c.11,.01,.19,.11,.18,.22,0,.1-.1,.18-.2,.18Z"/>
    </g>
    <g>
      <line x1="34.84" y1="61.5" x2="17.86" y2="51.42"/>
      <path d="M34.84,61.63s-.05,0-.07-.02l-16.98-10.08c-.06-.04-.08-.12-.05-.18,.04-.06,.12-.08,.18-.05l16.98,10.08c.06,.04,.08,.12,.05,.18-.02,.04-.07,.07-.11,.07Z"/>
    </g>
    <g>
      <line x1="34.84" y1="63.62" x2="19.45" y2="62.56"/>
      <path d="M34.84,63.76s0,0,0,0l-15.39-1.06c-.07,0-.13-.07-.12-.14s.07-.13,.14-.12l15.39,1.06c.07,0,.13,.07,.12,.14,0,.07-.06,.12-.13,.12Z"/>
    </g>
    <g>
      <line x1="34.84" y1="65.22" x2="18.39" y2="71.58"/>
      <path d="M18.39,71.72c-.05,0-.1-.03-.12-.08-.03-.07,0-.15,.08-.17l16.45-6.37c.07-.03,.15,0,.17,.08,.03,.07,0,.15-.08,.17l-16.45,6.37s-.03,0-.05,0Z"/>
    </g>
  </g>
</svg>