<?xml version="1.0" encoding="UTF-8"?>
<svg id="gato" xmlns="http://www.w3.org/2000/svg" viewBox="0 0 100 100">
  <defs>
    <style>
      .cls-1 {
        fill: #fff;
      }
    </style>
  </defs>
  <rect class="cls-1" x="0" width="100" height="100"/>
  <g>
    <path d="M49.09,88.87c-18.12,0-32.85-15.01-32.85-33.46S30.97,21.95,49.09,21.95s32.85,15.01,32.85,33.46-14.74,33.46-32.85,33.46Zm0-65.71c-17.44,0-31.64,14.47-31.64,32.25s14.19,32.25,31.64,32.25,31.64-14.47,31.64-32.25-14.19-32.25-31.64-32.25Z"/>
    <path d="M76.87,38.98c-.33,0-.6-.26-.61-.59-.47-14.87-1.78-24.53-2.78-25.38,0,0-.01,0-.02,0-1.13,0-6.09,4.5-12.35,11.96-.22,.26-.6,.29-.86,.08-.26-.22-.29-.6-.08-.86,2.53-3.01,10.96-12.81,13.55-12.38,1.19,.2,2.17,2.6,3.04,13.68,.5,6.38,.71,12.79,.71,12.86,.01,.34-.25,.62-.59,.63,0,0-.01,0-.02,0Zm-3.41-25.99h0Z"/>
    <path d="M21.65,38.52s-.01,0-.02,0c-.34-.01-.6-.29-.59-.63,0-.06,.21-6.48,.71-12.86,.87-11.08,1.85-13.48,3.04-13.68,2.56-.44,11.02,9.36,13.55,12.38,.22,.26,.18,.64-.08,.86-.26,.22-.64,.18-.86-.08-6.26-7.47-11.23-11.96-12.35-11.96,0,0-.01,0-.02,0-1,.85-2.31,10.51-2.78,25.38-.01,.33-.28,.59-.61,.59Zm3.41-25.99h0Z"/>
    <ellipse cx="37.33" cy="45.47" rx="2.84" ry="4.46"/>
    <ellipse cx="60.04" cy="45.07" rx="2.84" ry="4.46"/>
    <path d="M49.09,53.18c3.65,0,4.46,1.62,4.46,2.03,0,.81-3.65,2.84-4.46,2.84s-4.46-2.03-4.46-2.84,1.62-2.03,4.46-2.03Z"/>
    <path d="M65.72,54.8c-.15,0-.29-.08-.36-.22-.1-.2-.03-.44,.17-.55l19.87-10.55c.2-.11,.44-.03,.55,.17,.1,.2,.03,.44-.17,.55l-19.87,10.55c-.06,.03-.13,.05-.19,.05Z"/>
    <path d="M66.82,57.53c-.19,0-.36-.14-.4-.33-.04-.22,.11-.43,.33-.47l16.45-3.01c.22-.04,.43,.11,.47,.33,.04,.22-.11,.43-.33,.47l-16.45,3.01s-.05,0-.07,0Z"/>
    <path d="M85.59,65.35s-.06,0-.09-.01l-19.06-4.46c-.22-.05-.35-.27-.3-.49,.05-.22,.27-.35,.49-.3l19.06,4.46c.22,.05,.35,.27,.3,.49-.04,.19-.21,.31-.39,.31Z"/>
    <path d="M29.64,55.88c-.06,0-.13-.02-.19-.05l-19.87-10.55c-.2-.1-.27-.35-.17-.55,.1-.2,.35-.27,.55-.17l19.87,10.55c.2,.1,.27,.35,.17,.55-.07,.14-.21,.22-.36,.22Z"/>
    <path d="M28.53,58.61s-.05,0-.07,0l-16.45-3.01c-.22-.04-.37-.25-.33-.47,.04-.22,.25-.37,.47-.33l16.45,3.01c.22,.04,.37,.25,.33,.47-.04,.2-.21,.33-.4,.33Z"/>
    <path d="M9.76,66.43c-.18,0-.35-.13-.39-.31-.05-.22,.08-.44,.3-.49l19.06-4.46c.22-.05,.44,.08,.49,.3,.05,.22-.08,.44-.3,.49l-19.06,4.46s-.06,.01-.09,.01Z"/>
  </g>
</svg>