<?xml version="1.0" encoding="UTF-8"?>
<svg id="cenoura" xmlns="http://www.w3.org/2000/svg" viewBox="0 0 100 100">
  <defs>
    <style>
      .cls-1 {
        fill: #fff;
      }

      .cls-2 {
        fill: #ff8443;
      }

      .cls-3 {
        fill: #1d8100;
      }
    </style>
  </defs>
  <rect class="cls-1" x="0" width="100" height="100"/>
  <g>
    <path class="cls-3" d="M37.7,36.6s-20.04-7.04-15.77-12,11.51,1.52,11.51,1.52c0,0-7.31-12.87-2.55-14.7,4.76-1.83,9.35,11.38,9.35,11.38,0,0,.04-11.65,4.53-11.71s2.32,22.15,2.32,22.15c0,0-3.01,6.38-9.4,3.37Z"/>
    <path class="cls-2" d="M44.38,28.84c-3.17,.32-6.27,1.61-8.58,3.75-2.51,2.33-4.6,6.07-1.93,11.38,4.99,9.91,29.36,46.83,33.91,45.68s-10.68-51.99-13.24-56.82c-1.91-3.59-6.17-4.4-10.16-3.99Z"/>
  </g>
</svg>