<?xml version="1.0" encoding="UTF-8"?>
<svg id="morango" xmlns="http://www.w3.org/2000/svg" viewBox="0 0 100 100">
  <defs>
    <style>
      .cls-1 {
        fill: #fff;
      }

      .cls-2 {
        fill: #d20023;
      }

      .cls-3 {
        fill: #7aab4c;
      }
    </style>
  </defs>
  <rect class="cls-1" x="0" y="0" width="100" height="100"/>
  <g>
    <path class="cls-2" d="M48.76,25.42c18.11,.67,26.16,9.39,26.16,18.11s-12.74,41.58-24.14,41.58-28.17-30.18-26.16-43.59c2.01-13.41,18.11-16.32,24.14-16.1Z"/>
    <g>
      <path class="cls-3" d="M53.18,24.69s-5.84-1.48-14.36,1.44c-1.87,.64-3.6,1.67-4.98,3.09-2.05,2.11-2.95,4.48-2.45,5.02,1.18,1.27,12.07-6.28,12.07-6.28,0,0-5.54,9.9-4.14,10.17s8.03-7.85,8.03-7.85c0,0,.04,10.98,1.44,11.25s4.99-10.79,4.99-10.79c0,0,3.71,6.99,5.25,6.51s-.08-7.07-.08-7.07c0,0,10.31,2.78,10.46,2.03s-10.17-6.78-16.23-7.51Z"/>
      <path class="cls-3" d="M49.89,29.02c-.19-.04-.32-.22-.3-.41,.22-1.72,1.38-9.46,4.82-13.77,3.25-4.06,6.5-4.73,7.48-4.84,.18-.02,.34,.09,.39,.25l.27,.8c.07,.2-.05,.42-.25,.48-1.53,.43-7.18,2.5-8.86,9.63-1.21,5.14-1.48,7.09-1.51,7.82,0,.23-.22,.39-.45,.35l-1.6-.32Z"/>
    </g>
    <ellipse class="cls-1" cx="29.98" cy="44.53" rx="1.34" ry="3.69"/>
    <ellipse class="cls-1" cx="42.72" cy="50.57" rx="1.34" ry="3.69"/>
    <ellipse class="cls-1" cx="50.77" cy="61.3" rx="1.34" ry="3.69" transform="translate(-5.41 4.92) rotate(-5.26)"/>
    <ellipse class="cls-1" cx="59.49" cy="51.91" rx="1.34" ry="3.69" transform="translate(-4.51 5.68) rotate(-5.26)"/>
    <ellipse class="cls-1" cx="39.37" cy="69.35" rx=".98" ry="2.7" transform="translate(-9.95 6.68) rotate(-8.62)"/>
    <ellipse class="cls-1" cx="50.1" cy="78.07" rx=".98" ry="2.7" transform="translate(-11.13 8.39) rotate(-8.62)"/>
    <ellipse class="cls-1" cx="59.49" cy="72.7" rx="3.23" ry="1.17" transform="translate(-20.74 121.57) rotate(-82.05)"/>
    <ellipse class="cls-1" cx="33.33" cy="59.96" rx="1.04" ry="2.87" transform="translate(-9.25 6.17) rotate(-9.3)"/>
    <ellipse class="cls-1" cx="66.2" cy="40.51" rx="1.34" ry="3.02"/>
    <ellipse class="cls-1" cx="68.88" cy="53.92" rx="3.02" ry="1.1" transform="translate(4.82 113.49) rotate(-80.97)"/>
  </g>
</svg>