<?xml version="1.0" encoding="UTF-8"?>
<svg id="sapo" xmlns="http://www.w3.org/2000/svg" viewBox="0 0 100 100">
  <defs>
    <style>
      .cls-1 {
        fill: #fff;
      }
    </style>
  </defs>
  <rect class="cls-1" width="100" height="100"/>
  <g>
    <path d="M26.71,64.95v-.21c-.02-.18-1.07-18.5,8.22-27.79,3.96-3.96,9.24-5.76,15.69-5.35,6.91,.44,12.37,3,16.22,7.6,8.02,9.58,6.38,24.99,6.36,25.14l-.02,.19-8.63,.08v-.44s8.23-.07,8.23-.07c.16-1.8,1.14-15.76-6.28-24.62-3.78-4.51-9.13-7.01-15.91-7.44-6.32-.4-11.48,1.36-15.35,5.22-8.63,8.62-8.21,25.2-8.12,27.25l9.45-.08v.44s-9.86,.09-9.86,.09Z"/>
    <rect x="38.85" y="64.3" width="23.12" height=".44" transform="translate(-.63 .5) rotate(-.56)"/>
    <path d="M34.34,38.01c-.06,0-.12-.02-.16-.07-.15-.15-3.56-3.77-3.18-6.95,.14-1.18,.79-2.14,1.93-2.86,1.17-.74,2.34-.93,3.48-.56,2.95,.97,4.66,5.3,4.74,5.49,.04,.11-.01,.24-.12,.28-.11,.04-.24-.01-.28-.12-.02-.04-1.71-4.33-4.46-5.23-1.01-.33-2.06-.16-3.11,.51-1.02,.65-1.6,1.5-1.73,2.55-.36,2.98,3.02,6.56,3.06,6.6,.08,.09,.08,.23,0,.31-.04,.04-.1,.06-.15,.06Z"/>
    <path d="M63.33,35.99c-.05,0-.11-.02-.15-.06-.09-.08-.09-.22-.01-.31,.03-.03,3.04-3.32,2.56-5.99-.19-1.03-.88-1.85-2.06-2.44-.87-.43-1.71-.48-2.49-.13-2.47,1.1-3.76,5.65-3.78,5.69-.03,.12-.15,.19-.27,.15-.12-.03-.19-.15-.15-.27,.05-.19,1.36-4.79,4.02-5.98,.91-.41,1.88-.36,2.87,.13,1.31,.65,2.08,1.58,2.29,2.75,.52,2.89-2.54,6.23-2.67,6.37-.04,.05-.1,.07-.16,.07Z"/>
    <path d="M72.98,67.14c-.12,0-.22-.09-.22-.21l-.09-2.67c0-.12,.09-.22,.21-.23,.12,0,.22,.09,.23,.21l.08,2.45c6.34,0,15.86-.39,16.67-1.43,.03-.03,.02-.05,.02-.06-.27-1.07-5.92-.55-9.84,.16-.08,.01-.15-.01-.21-.07-.05-.06-.07-.14-.04-.21,.01-.04,1.21-3.65,1.91-7.43,.91-4.91,.59-7.86-.92-8.53-2.9-1.29-5.66,2.47-6.98,4.28-.57,.78-.72,.97-.92,.97-.12,0-.22-.1-.22-.22,0-.1,.07-.19,.16-.21,.1-.08,.37-.44,.62-.8,1.39-1.9,4.29-5.86,7.51-4.42,3.78,1.68,.09,13.87-.64,16.15,2.24-.39,9.55-1.52,9.98,.23,.03,.11,.03,.27-.1,.43-1.21,1.55-15.59,1.59-17.22,1.59Zm-.09-13.2h0Z"/>
    <path d="M27.02,67.14c-1.64,0-16.01-.04-17.22-1.59-.13-.17-.13-.33-.1-.43,.44-1.75,7.74-.62,9.98-.23-.73-2.29-4.42-14.48-.64-16.15,3.22-1.43,6.33,2.55,7.82,4.46,.28,.35,.56,.72,.66,.8,.09,.03,.16,.11,.16,.21,0,.12-.1,.22-.22,.22-.2,0-.35-.18-.95-.96-1.42-1.82-4.39-5.62-7.3-4.33-1.51,.67-1.83,3.62-.92,8.53,.7,3.78,1.9,7.4,1.91,7.43,.02,.07,0,.15-.04,.21-.05,.06-.13,.09-.21,.07-3.92-.71-9.57-1.24-9.84-.16,0,0,0,.02,.02,.06,.81,1.03,10.31,1.42,16.65,1.43l-.06-2.19c0-.12,.09-.22,.21-.23h0c.12,0,.22,.09,.22,.21l.06,2.42c0,.06-.02,.12-.06,.16-.04,.04-.1,.07-.16,.07Zm.44-13.16h0Z"/>
    <circle cx="62.01" cy="30.95" r="1.76"/>
    <circle cx="36.13" cy="31.38" r="2.19"/>
    <circle class="cls-1" cx="37" cy="30.51" r=".44"/>
    <circle class="cls-1" cx="62.89" cy="30.51" r=".44"/>
    <path d="M62.85,72.73c-.07,0-.14,0-.21-.03-.89-.22-.58-1.47-.34-2.47,.09-.36,.17-.69,.17-.88,0-1.1-2.02-11.69-2.77-12.12-.1-.06-.14-.19-.09-.3,.06-.1,.18-.15,.29-.1,1.22,.61,3.01,12.4,3.01,12.51,0,.24-.09,.58-.18,.98-.19,.77-.45,1.83,.02,1.94,.13,.03,.18,0,.2-.01,.15-.1,.19-.5,.22-.8,.04-.42,.1-.89,.49-.89,.31,0,.54,.32,.81,.73,.31,.45,.66,.97,1.11,.97,.01,0,.03,0,.04,0-.06-.13-.24-.36-.35-.51-.32-.41-.51-.67-.45-.92,.02-.1,.09-.19,.19-.24,.46-.23,1.12,.14,1.88,.57,.24,.13,.48,.27,.73,.4,.9,.45,1.26,.41,1.6,.12-.27-.22-1.31-.64-2.02-.92-1.6-.64-2.26-.94-2.33-1.28-.02-.09,0-.19,.07-.26,.21-.71-1.39-8.1-2.45-12.62-.03-.12,.05-.24,.16-.26,.12-.03,.24,.05,.26,.16,1.05,4.45,2.7,11.86,2.4,12.91,.22,.22,1.31,.65,2.05,.95,1.6,.64,2.26,.94,2.33,1.28,.02,.1-.01,.21-.09,.29-.63,.63-1.28,.49-2.18,.04-.25-.13-.51-.27-.75-.41-.53-.3-1.12-.63-1.41-.58,.05,.13,.24,.37,.36,.52,.3,.39,.56,.72,.43,1-.07,.15-.22,.22-.46,.22-.68,0-1.12-.64-1.48-1.16-.12-.18-.32-.46-.42-.52-.04,.09-.07,.33-.08,.49-.05,.42-.1,.89-.41,1.11-.1,.07-.22,.11-.35,.11Zm2.07-3.5h0Zm.03-.04h0s0,0,0,0Z"/>
    <path d="M37.9,73.61c-.13,0-.25-.04-.35-.11-.31-.22-.36-.69-.41-1.11-.02-.16-.04-.4-.08-.49-.1,.06-.3,.35-.43,.52-.35,.52-.8,1.16-1.48,1.16-.23,0-.39-.07-.46-.22-.13-.27,.13-.61,.43-1,.12-.15,.3-.39,.36-.52-.28-.06-.88,.28-1.41,.58-.24,.14-.5,.28-.75,.41-.9,.45-1.55,.59-2.18-.04-.08-.08-.11-.18-.09-.29,.07-.34,.73-.64,2.33-1.28,.74-.3,1.83-.73,2.05-.95-.3-1.05,1.36-8.46,2.4-12.91,.03-.12,.14-.19,.26-.16,.12,.03,.19,.15,.16,.26-1.06,4.52-2.66,11.91-2.45,12.62,.06,.07,.09,.17,.07,.26-.07,.34-.73,.64-2.33,1.28-.71,.28-1.75,.7-2.02,.92,.33,.3,.69,.34,1.6-.12,.25-.12,.49-.26,.73-.4,.76-.43,1.42-.8,1.88-.57,.1,.05,.17,.13,.19,.24,.06,.25-.14,.51-.45,.92-.11,.15-.29,.38-.35,.51,.01,0,.02,0,.04,0,.45,0,.8-.51,1.11-.97,.28-.4,.5-.73,.81-.73,.4,0,.45,.47,.49,.89,.03,.29,.07,.69,.22,.8,.02,.01,.07,.05,.2,.01,.47-.12,.21-1.17,.02-1.94-.1-.4-.18-.74-.18-.98,0-.11,1.79-11.9,3.01-12.51,.11-.05,.24-.01,.29,.1,.05,.11,.01,.24-.1,.29-.75,.44-2.77,11.02-2.77,12.12,0,.19,.08,.52,.17,.88,.25,1,.55,2.25-.34,2.47-.07,.02-.14,.03-.21,.03Zm-2.07-3.5h0Zm-.03-.04s0,0,0,0c0,0,0,0,0,0Z"/>
    <path d="M49.07,40.16c-3.18,0-4.11-2.24-4.15-2.33l.41-.16c.03,.08,.87,2.06,3.75,2.06s4.18-2.49,4.19-2.51l.39,.2s-1.41,2.75-4.58,2.75Z"/>
  </g>
</svg>