<?xml version="1.0" encoding="UTF-8"?>
<svg id="hamburguer" xmlns="http://www.w3.org/2000/svg" viewBox="0 0 100 100">
  <defs>
    <style>
      .cls-1 {
        fill: #00b737;
      }

      .cls-2 {
        fill: #fff;
      }

      .cls-3 {
        fill: #ffcb00;
      }

      .cls-4 {
        fill: #673606;
      }

      .cls-5 {
        fill: #d20023;
      }

      .cls-6 {
        fill: #df9864;
      }
    </style>
  </defs>
  <rect class="cls-2" x="0" y="0" width="100" height="100"/>
  <g>
    <path class="cls-6" d="M18.86,57.44H83.23c1.8,0,3.25,1.46,3.25,3.25v5.48c0,8.06-6.55,14.61-14.61,14.61H30.22c-8.06,0-14.61-6.55-14.61-14.61v-5.48c0-1.8,1.46-3.25,3.25-3.25Z"/>
    <path class="cls-4" d="M16.3,47.93H85.49c.79,0,1.43,.64,1.43,1.43v2.23c0,3.23-2.62,5.85-5.85,5.85H20.46c-3.16,0-5.72-2.56-5.72-5.72v-2.23c0-.86,.7-1.56,1.56-1.56Z"/>
    <path class="cls-3" d="M19.93,41.45l-8.51,5.32c-.66,.41-.47,1.43,.29,1.57,8.77,1.64,41.38,7.69,44.3,7.59,5.28-.18,25.59-8.34,31.85-10.9,.7-.29,.71-1.27,.02-1.58l-9.72-4.32c-.08-.04-.16-.06-.25-.07l-30.02-3.43c-.07,0-.13,0-.2,0-1.66,.2-24.03,2.91-27.78,5.82Z"/>
    <rect class="cls-5" x="20.36" y="45.77" width="24.63" height="3.03" rx="1.16" ry="1.16"/>
    <rect class="cls-5" x="55.37" y="45.77" width="22.47" height="3.03" rx="1.16" ry="1.16"/>
    <path class="cls-1" d="M19.08,42.32l62.52,.43c1.07,0,2.09,.29,2.91,.81,2.25,1.43,6.29,4.39,3.77,5.67-3.4,1.73-7.37-2.16-10.21-2.16s-6.24,2.16-9.64,3.03-6.24-3.89-9.07-3.46-9.64,3.89-11.91,4.32-7.94-5.62-11.34-5.19-6.24,5.62-7.94,5.62-3.97-5.19-6.24-5.19-5.1,4.75-7.37,4.75-1.13-8.64,4.54-8.64Z"/>
    <path class="cls-6" d="M81.39,43.18c3.41,0,5.7-3.58,4.19-6.64-5.32-10.79-18.77-18.45-34.53-18.45s-29.21,7.66-34.53,18.45c-1.51,3.06,.78,6.64,4.19,6.64h60.68Z"/>
  </g>
</svg>