<?xml version="1.0" encoding="UTF-8"?>
<svg id="margarida" xmlns="http://www.w3.org/2000/svg" viewBox="0 0 100 100">
  <defs>
    <style>
      .cls-1 {
        fill: #fff;
      }

      .cls-2 {
        fill: #ffce00;
      }
    </style>
  </defs>
  <rect class="cls-1" x="0" y="0" width="100" height="100"/>
  <g>
    <g>
      <g id="_Radial_Repeat_" data-name="&amp;lt;Radial Repeat&amp;gt;">
        <path d="M50.07,87.38c-.8,0-1.47-.34-2-1.01-1.71-2.18-1.9-7.83-.57-16.78,.99-6.66,2.5-12.76,2.52-12.82l.04-.18,.05,.18c.02,.06,1.68,6,2.8,12.56,1.5,8.81,1.36,14.47-.42,16.83-.61,.81-1.43,1.22-2.42,1.22Zm0-30.4c-.26,1.07-1.58,6.62-2.47,12.63-.91,6.13-1.56,14.01,.55,16.7,.5,.64,1.15,.97,1.92,.97,.96,0,1.75-.4,2.35-1.18,2.2-2.91,1.43-10.71,.4-16.75-1.01-5.91-2.46-11.32-2.75-12.37Z"/>
      </g>
      <g id="_Radial_Repeat_-2" data-name="&amp;lt;Radial Repeat&amp;gt;">
        <path d="M41.13,86.25c-.26,0-.52-.03-.79-.1-.78-.2-1.34-.69-1.68-1.47-1.11-2.54,.11-8.06,3.62-16.39,2.61-6.2,5.59-11.73,5.62-11.79l.09-.16v.19c0,.06,.14,6.23-.41,12.86-.73,8.91-2.28,14.36-4.59,16.2-.57,.45-1.19,.68-1.86,.68Zm6.77-29.55c-.52,.97-3.17,6.02-5.53,11.61-2.41,5.71-4.99,13.18-3.62,16.32,.33,.75,.87,1.22,1.62,1.42,.93,.24,1.8,.05,2.57-.56,2.85-2.27,4.05-10.02,4.56-16.13,.49-5.97,.43-11.57,.41-12.66Z"/>
      </g>
      <g id="_Radial_Repeat_-3" data-name="&amp;lt;Radial Repeat&amp;gt;">
        <path d="M32.65,82.93c-.49,0-.97-.13-1.44-.39-.7-.39-1.13-1.01-1.26-1.84-.44-2.74,2.11-7.78,7.59-14.98,4.08-5.36,8.34-9.97,8.38-10.02l.13-.14-.04,.18c-.01,.06-1.42,6.07-3.6,12.35-2.93,8.45-5.78,13.34-8.48,14.54-.43,.19-.85,.29-1.28,.29Zm13.21-27.02c-.74,.81-4.57,5.04-8.25,9.87-3.75,4.94-8.11,11.53-7.57,14.9,.13,.81,.54,1.4,1.21,1.77,.84,.46,1.73,.5,2.62,.1,3.33-1.49,6.42-8.7,8.42-14.49,1.96-5.66,3.3-11.1,3.55-12.16Z"/>
      </g>
      <g id="_Radial_Repeat_-4" data-name="&amp;lt;Radial Repeat&amp;gt;">
        <path d="M25.3,77.59c-.76,0-1.44-.28-2.02-.82-.58-.55-.84-1.26-.77-2.1,.25-2.76,3.98-7.01,11.07-12.62,5.28-4.18,10.55-7.59,10.61-7.62l.16-.1-.09,.16c-.03,.05-2.88,5.52-6.56,11.07-4.94,7.45-8.92,11.48-11.83,11.98-.2,.03-.39,.05-.58,.05Zm18.79-22.98c-.92,.6-5.68,3.75-10.44,7.51-6.97,5.52-10.79,9.86-11.04,12.55-.07,.81,.17,1.49,.73,2.02,.7,.66,1.55,.91,2.52,.75,2.84-.48,6.91-4.61,11.76-11.94,3.31-5,5.96-9.93,6.46-10.89Z"/>
      </g>
      <g id="_Radial_Repeat_-5" data-name="&amp;lt;Radial Repeat&amp;gt;">
        <path d="M19.71,70.62c-.12,0-.24,0-.35-.01-1.01-.08-1.8-.55-2.33-1.39-.43-.68-.5-1.43-.22-2.22,.93-2.61,5.59-5.8,13.86-9.47,6.15-2.73,12.11-4.72,12.17-4.74l.18-.06-.12,.14s-4.17,4.63-9.1,9.09c-6.38,5.76-11.11,8.68-14.08,8.68Zm22.99-17.69c-1.04,.35-6.43,2.22-11.98,4.68-5.67,2.52-12.66,6.19-13.81,9.41-.27,.77-.2,1.49,.21,2.14,.52,.81,1.27,1.27,2.25,1.35,2.88,.24,7.84-2.75,14.36-8.64,4.45-4.02,8.24-8.14,8.97-8.95Z"/>
      </g>
      <g id="_Radial_Repeat_-6" data-name="&amp;lt;Radial Repeat&amp;gt;">
        <path d="M16.61,62.54c-.71,0-1.33-.09-1.85-.27-.96-.33-1.6-.98-1.91-1.93-.25-.76-.13-1.51,.34-2.21,1.55-2.3,6.86-4.22,15.78-5.73,6.64-1.12,12.9-1.56,12.97-1.57h.19s-.15,.09-.15,.09c-.05,.03-5.19,3.45-11.08,6.54-6.43,3.37-11.22,5.07-14.28,5.07Zm25.15-11.59c-1.09,.08-6.78,.55-12.77,1.55-6.12,1.03-13.81,2.85-15.72,5.68-.46,.68-.57,1.39-.33,2.12,.3,.92,.92,1.54,1.85,1.87,.52,.18,1.12,.26,1.78,.26,3.78,0,9.66-2.63,14.28-5.05,5.31-2.78,10-5.84,10.91-6.43Z"/>
      </g>
      <g id="_Radial_Repeat_-7" data-name="&amp;lt;Radial Repeat&amp;gt;">
        <path d="M17.51,54.12c-2.33,0-4.04-.36-5.13-1.08-.85-.56-1.31-1.35-1.37-2.34-.05-.8,.25-1.49,.88-2.05,2.07-1.84,7.7-2.39,16.71-1.62,6.71,.57,12.89,1.69,12.95,1.71l.18,.03-.18,.06c-.06,.02-5.88,2.05-12.36,3.58-4.85,1.15-8.76,1.72-11.69,1.72Zm4.16-7.33c-4.2,0-8.07,.46-9.72,1.92-.61,.54-.89,1.21-.85,1.97,.06,.96,.51,1.72,1.33,2.27,3.04,2.01,10.78,.76,16.74-.65,5.83-1.38,11.14-3.17,12.17-3.52-1.08-.19-6.7-1.16-12.76-1.67-2.2-.19-4.61-.33-6.92-.33Z"/>
      </g>
      <g id="_Radial_Repeat_-8" data-name="&amp;lt;Radial Repeat&amp;gt;">
        <path d="M31,47.1c-.71,0-1.44,0-2.18-.02-8.94-.17-14.47-1.37-16.45-3.57-.68-.75-.93-1.63-.74-2.61,.15-.79,.61-1.38,1.36-1.77,2.47-1.27,8.05-.4,16.59,2.59,6.36,2.22,12.06,4.85,12.12,4.87l.17,.08-.18,.02c-.05,0-4.93,.42-10.68,.42Zm-15.03-8.42c-1.19,0-2.19,.16-2.93,.54-.73,.37-1.17,.95-1.31,1.7-.18,.95,.06,1.8,.72,2.53,2.44,2.71,10.25,3.42,16.38,3.54,5.99,.12,11.58-.3,12.66-.38-1-.45-6.2-2.79-11.94-4.79-4.43-1.55-9.88-3.13-13.58-3.13Z"/>
      </g>
      <g id="_Radial_Repeat_-9" data-name="&amp;lt;Radial Repeat&amp;gt;">
        <path d="M42.51,44.68l-.18-.03c-.06-.01-6.15-1.03-12.55-2.81-8.61-2.39-13.68-4.93-15.05-7.55-.47-.9-.5-1.81-.07-2.71,.34-.73,.93-1.19,1.76-1.38,2.7-.61,7.89,1.62,15.42,6.63,5.6,3.73,10.48,7.69,10.53,7.73l.14,.12Zm-25.15-14.48c-.33,0-.64,.03-.92,.09-.8,.18-1.37,.63-1.69,1.32-.41,.87-.39,1.76,.07,2.63,1.69,3.23,9.08,5.86,14.99,7.5,5.78,1.6,11.29,2.59,12.36,2.78-.85-.69-5.32-4.24-10.37-7.61-4.72-3.15-10.87-6.71-14.43-6.71Z"/>
      </g>
      <g id="_Radial_Repeat_-10" data-name="&amp;lt;Radial Repeat&amp;gt;">
        <path d="M43.64,42.91l-.17-.08c-.06-.02-5.69-2.53-11.46-5.85-7.75-4.46-12.02-8.18-12.7-11.05-.23-.99-.03-1.88,.61-2.65,.51-.62,1.2-.92,2.05-.9,2.77,.08,7.24,3.53,13.29,10.26,4.5,5.01,8.24,10.06,8.27,10.11l.11,.15ZM21.87,22.49c-.78,0-1.41,.29-1.88,.86-.61,.74-.81,1.6-.59,2.56,.66,2.81,5.04,6.61,12.65,10.99,5.2,2.99,10.29,5.32,11.28,5.77-.66-.88-4.09-5.43-8.15-9.95-4.15-4.61-9.8-10.13-13.22-10.23-.03,0-.06,0-.09,0Z"/>
      </g>
      <g id="_Radial_Repeat_-11" data-name="&amp;lt;Radial Repeat&amp;gt;">
        <path d="M45.16,41.48l-.15-.12s-4.89-3.87-9.65-8.51c-6.4-6.24-9.61-10.91-9.55-13.86,.02-1.01,.44-1.83,1.24-2.41,.65-.47,1.39-.59,2.21-.36,2.67,.76,6.14,5.22,10.32,13.24,3.11,5.97,5.48,11.79,5.5,11.85l.07,.17ZM28.49,16.2c-.49,0-.95,.15-1.37,.45-.78,.57-1.18,1.35-1.2,2.33-.06,2.88,3.23,7.65,9.52,13.79,4.29,4.19,8.64,7.71,9.49,8.39-.42-1.01-2.61-6.28-5.42-11.66-2.87-5.5-6.98-12.25-10.26-13.19-.26-.07-.51-.11-.75-.11Z"/>
      </g>
      <g id="_Radial_Repeat_-12" data-name="&amp;lt;Radial Repeat&amp;gt;">
        <path d="M47,40.47l-.11-.15s-3.77-4.96-7.23-10.65c-4.64-7.64-6.59-12.96-5.8-15.8,.27-.98,.88-1.66,1.81-2.03,.75-.3,1.49-.23,2.23,.2,2.39,1.4,4.65,6.58,6.7,15.39,1.53,6.56,2.37,12.78,2.38,12.84l.02,.18Zm-10.42-28.7c-.29,0-.58,.06-.87,.17-.9,.35-1.48,1.01-1.75,1.96-.98,3.51,2.61,10.49,5.79,15.72,3.11,5.12,6.45,9.62,7.11,10.49-.15-1.09-.97-6.73-2.35-12.65-1.41-6.04-3.71-13.6-6.66-15.33-.42-.24-.84-.37-1.27-.37Z"/>
      </g>
      <g id="_Radial_Repeat_-13" data-name="&amp;lt;Radial Repeat&amp;gt;">
        <path d="M49.03,39.95l-.07-.17c-.02-.06-2.42-5.74-4.35-12.11-2.6-8.55-3.17-14.19-1.69-16.75,.51-.88,1.26-1.39,2.25-1.51,.8-.1,1.5,.15,2.11,.75,1.97,1.95,2.86,7.53,2.67,16.58-.15,6.73-.88,12.97-.89,13.03l-.02,.18Zm-3.53-30.46c-.11,0-.21,0-.32,.02-.96,.12-1.69,.61-2.18,1.47-1.82,3.16-.08,10.81,1.7,16.67,1.74,5.74,3.86,10.92,4.27,11.92,.12-1.09,.73-6.76,.87-12.84,.14-6.2-.21-14.1-2.64-16.5-.5-.49-1.07-.74-1.7-.74Z"/>
      </g>
      <g id="_Radial_Repeat_-14" data-name="&amp;lt;Radial Repeat&amp;gt;">
        <path d="M51.12,39.95l-.03-.18c0-.06-.91-6.16-1.2-12.81-.39-8.93,.46-14.53,2.53-16.64,.71-.73,1.57-1.03,2.56-.91,.8,.1,1.42,.52,1.85,1.25,1.42,2.38,.9,8.01-1.54,16.72-1.82,6.48-4.08,12.34-4.1,12.4l-.07,.17Zm3.43-30.47c-.79,0-1.48,.3-2.07,.9-2.55,2.61-2.77,10.45-2.5,16.57,.26,5.99,1.02,11.54,1.18,12.61,.39-1.03,2.39-6.37,4.03-12.22,1.67-5.97,3.3-13.71,1.55-16.64-.42-.7-1.02-1.1-1.78-1.2-.14-.02-.28-.03-.41-.03Z"/>
      </g>
      <g id="_Radial_Repeat_-15" data-name="&amp;lt;Radial Repeat&amp;gt;">
        <path d="M53.15,40.47l.02-.18c0-.06,.65-6.2,2.02-12.71,1.85-8.75,4.06-13.96,6.59-15.49,.87-.53,1.78-.61,2.7-.24,.75,.3,1.25,.86,1.48,1.67,.78,2.66-1.12,7.98-5.65,15.81-3.37,5.83-7.02,10.94-7.06,10.99l-.11,.15Zm10.2-28.75c-.52,0-1.03,.15-1.52,.45-3.12,1.89-5.28,9.43-6.54,15.43-1.24,5.87-1.88,11.43-2,12.51,.63-.9,3.9-5.57,6.94-10.83,3.11-5.37,6.61-12.45,5.64-15.73-.23-.78-.71-1.32-1.43-1.61-.37-.15-.73-.22-1.09-.22Z"/>
      </g>
      <g id="_Radial_Repeat_-16" data-name="&amp;lt;Radial Repeat&amp;gt;">
        <path d="M54.99,41.48l.06-.17c.02-.06,2.17-5.84,5.12-11.8,3.96-8.01,7.41-12.51,10.23-13.37,.97-.29,1.87-.15,2.68,.44,.65,.47,.99,1.14,1.02,1.99,.1,2.77-3.07,7.45-9.4,13.91-4.72,4.81-9.52,8.85-9.57,8.89l-.14,.12Zm16.36-25.39c-.3,0-.6,.05-.92,.14-2.76,.84-6.28,5.44-10.17,13.32-2.66,5.37-4.66,10.6-5.05,11.62,.84-.71,5.16-4.43,9.42-8.76,4.34-4.43,9.5-10.42,9.38-13.84-.03-.82-.36-1.46-.98-1.91-.52-.38-1.08-.57-1.67-.57Z"/>
      </g>
      <g id="_Radial_Repeat_-17" data-name="&amp;lt;Radial Repeat&amp;gt;">
        <path d="M56.51,42.91l.11-.15c.04-.05,3.55-5.12,7.89-10.16,5.83-6.78,10.28-10.28,13.24-10.4,1.02-.04,1.85,.32,2.49,1.09,.51,.62,.68,1.35,.5,2.18-.59,2.71-4.82,6.45-12.57,11.13-5.76,3.48-11.42,6.21-11.48,6.23l-.17,.08Zm21.39-20.62c-.05,0-.1,0-.15,0-2.88,.12-7.43,3.71-13.16,10.37-3.91,4.54-7.15,9.11-7.78,10,.99-.48,6.1-3,11.3-6.15,5.31-3.21,11.79-7.73,12.52-11.07,.18-.8,.01-1.5-.48-2.09-.58-.7-1.34-1.06-2.25-1.06Z"/>
      </g>
      <g id="_Radial_Repeat_-18" data-name="&amp;lt;Radial Repeat&amp;gt;">
        <path d="M57.64,44.68l.14-.12s4.71-4.08,10.17-7.88c7.33-5.11,12.52-7.39,15.41-6.78,.99,.21,1.71,.77,2.14,1.67,.34,.73,.32,1.48-.06,2.23-1.25,2.47-6.28,5.05-14.94,7.66-6.45,1.94-12.61,3.17-12.67,3.18l-.18,.04Zm24.75-14.78c-3.72,0-9.77,3.65-14.38,6.86-4.92,3.43-9.19,7.04-10.02,7.75,1.07-.22,6.66-1.39,12.47-3.14,5.94-1.79,13.34-4.56,14.88-7.61,.37-.73,.39-1.45,.06-2.15-.41-.87-1.11-1.42-2.07-1.62-.3-.06-.61-.09-.95-.09Z"/>
      </g>
      <g id="_Radial_Repeat_-19" data-name="&amp;lt;Radial Repeat&amp;gt;">
        <path d="M65.98,46.86c-4.27,0-7.47-.17-7.51-.18h-.19s.17-.09,.17-.09c.06-.03,5.58-2.77,11.81-5.1,8.37-3.13,13.96-4.05,16.61-2.74,.91,.45,1.47,1.17,1.65,2.15,.15,.79-.06,1.51-.61,2.15-1.83,2.09-7.34,3.33-16.38,3.7-1.93,.08-3.83,.11-5.55,.11Zm-7.32-.26c1.1,.05,6.79,.31,12.86,.06,6.2-.25,14.06-1.1,16.31-3.67,.54-.61,.74-1.31,.59-2.07-.18-.95-.72-1.65-1.6-2.08-3.27-1.62-10.79,.6-16.53,2.74-5.62,2.1-10.66,4.54-11.63,5.02Z"/>
      </g>
      <g id="_Radial_Repeat_-20" data-name="&amp;lt;Radial Repeat&amp;gt;">
        <path d="M82.85,53.69c-2.9,0-6.78-.52-11.62-1.55-6.58-1.41-12.57-3.3-12.63-3.31l-.18-.06,.18-.04c.06-.01,6.09-1.3,12.71-2.01,8.89-.95,14.53-.45,16.77,1.48,.77,.66,1.13,1.5,1.06,2.5-.05,.8-.43,1.45-1.13,1.93-1.04,.71-2.76,1.06-5.16,1.06Zm-24.05-4.9c1.05,.32,6.5,1.99,12.45,3.26,6.06,1.3,13.89,2.43,16.71,.5,.67-.46,1.04-1.08,1.09-1.85,.06-.96-.29-1.77-1.03-2.42-2.76-2.38-10.6-2.1-16.69-1.45-5.96,.64-11.45,1.74-12.51,1.96Z"/>
      </g>
      <g id="_Radial_Repeat_-21" data-name="&amp;lt;Radial Repeat&amp;gt;">
        <path d="M83.94,62.19c-2.97,0-7.79-1.65-14.35-4.91-6.03-3-11.36-6.32-11.41-6.35l-.16-.1h.19c.06,0,6.23,.26,12.81,1.23,8.85,1.29,14.19,3.18,15.87,5.6,.58,.83,.72,1.74,.41,2.68-.25,.76-.78,1.3-1.57,1.59-.49,.18-1.09,.27-1.78,.27Zm-25.55-11.25c.93,.58,5.81,3.54,11.24,6.25,5.55,2.76,12.84,5.81,16.06,4.64,.77-.28,1.28-.79,1.51-1.52,.3-.92,.16-1.79-.4-2.6-2.08-2.99-9.75-4.67-15.81-5.56-5.93-.87-11.52-1.16-12.61-1.21Z"/>
      </g>
      <g id="_Radial_Repeat_-22" data-name="&amp;lt;Radial Repeat&amp;gt;">
        <path d="M80.83,70.38c-2.81,0-7.55-2.87-14.1-8.53-5.09-4.4-9.43-8.95-9.47-8.99l-.13-.13,.18,.05c.06,.02,5.97,1.8,12.1,4.37,8.25,3.45,12.95,6.61,13.98,9.37,.35,.95,.26,1.86-.27,2.7-.43,.68-1.08,1.06-1.92,1.15-.12,.01-.24,.02-.37,.02Zm-23.37-17.45c.76,.79,4.74,4.88,9.34,8.85,4.53,3.92,10.58,8.5,14.05,8.5,.12,0,.24,0,.35-.02,.81-.08,1.43-.45,1.85-1.1,.52-.81,.6-1.69,.26-2.61-1.01-2.7-5.82-5.92-13.93-9.32-5.53-2.31-10.87-3.99-11.91-4.31Z"/>
      </g>
      <g id="_Radial_Repeat_-23" data-name="&amp;lt;Radial Repeat&amp;gt;">
        <path d="M75.19,77.44c-.15,0-.3-.01-.46-.04-2.74-.42-6.74-4.41-11.9-11.84-3.84-5.53-6.91-11.01-6.94-11.07l-.09-.16,.16,.1c.05,.03,5.33,3.22,10.64,7.24,7.13,5.39,10.9,9.62,11.21,12.56,.11,1.01-.21,1.87-.93,2.55-.47,.44-1.04,.67-1.68,.67Zm-19.13-22.83c.54,.95,3.38,5.9,6.84,10.89,5.07,7.31,9.16,11.39,11.83,11.8,.81,.12,1.5-.08,2.06-.61,.7-.66,1.01-1.49,.9-2.47-.3-2.87-4.17-7.19-11.17-12.49-4.78-3.62-9.54-6.57-10.47-7.13Z"/>
      </g>
      <g id="_Radial_Repeat_-24" data-name="&amp;lt;Radial Repeat&amp;gt;">
        <path d="M67.76,82.85c-.35,0-.7-.08-1.06-.23-2.55-1.09-5.44-5.95-8.58-14.43-2.34-6.31-3.95-12.38-3.97-12.44l-.05-.18,.13,.13s4.36,4.45,8.5,9.66c5.56,7,8.17,12.03,7.74,14.95-.15,1-.66,1.76-1.54,2.24-.38,.21-.77,.31-1.17,.31Zm-13.47-26.95c.29,1.06,1.81,6.56,3.92,12.25,2.16,5.81,5.39,13.03,8.53,14.37,.75,.32,1.47,.3,2.15-.08,.84-.46,1.34-1.19,1.49-2.16,.53-3.61-3.9-10.08-7.72-14.87-3.73-4.69-7.61-8.73-8.36-9.51Z"/>
      </g>
      <g id="_Radial_Repeat_-25" data-name="&amp;lt;Radial Repeat&amp;gt;">
        <path d="M59.17,86.23c-.54,0-1.06-.19-1.55-.56-2.2-1.69-3.79-7.11-4.72-16.11-.7-6.7-.75-12.98-.75-13.04v-.19s.09,.16,.09,.16c.03,.05,3.12,5.39,5.83,11.47,3.65,8.16,4.92,13.68,3.78,16.41-.39,.94-1.08,1.54-2.05,1.78-.22,.06-.43,.08-.64,.08Zm-6.92-29.53c.01,1.1,.12,6.8,.75,12.84,.64,6.17,1.98,13.96,4.68,16.04,.65,.5,1.35,.65,2.1,.46,.93-.24,1.6-.82,1.98-1.73,1.41-3.36-1.28-10.73-3.78-16.33-2.45-5.47-5.2-10.35-5.74-11.29Z"/>
      </g>
    </g>
    <circle class="cls-2" cx="49.25" cy="48.03" r="16.2"/>
  </g>
</svg>