<?xml version="1.0" encoding="UTF-8"?>
<svg id="cachorro" xmlns="http://www.w3.org/2000/svg" viewBox="0 0 100 100">
  <defs>
    <style>
      .cls-1 {
        fill: #fff;
      }
    </style>
  </defs>
  <rect class="cls-1" width="100" height="100"/>
  <g>
    <g>
      <path d="M29.09,27.33c5.92-4.78,13.38-7.51,21.3-7.51,7.32,0,14.1,2.34,19.65,6.3-.06-.12-.12-.24-.17-.38-.19-.52-.05-.94,.24-1.22-5.63-3.82-12.43-6.05-19.73-6.05-8.23,0-15.98,2.83-22.13,7.79,.41,.22,.73,.62,.83,1.06Z"/>
      <path d="M78.95,33.09c-.24,.41-.68,.71-1.14,.72,4.08,5.6,6.5,12.49,6.5,19.93,0,18.7-15.21,33.91-33.91,33.91s-33.91-15.21-33.91-33.91c0-5.42,1.31-10.81,3.79-15.59,.01-.02,.02-.04,.03-.06-.06-.04-.12-.07-.18-.12-.37-.09-.7-.33-.92-.68-.04,.08-.09,.16-.13,.24-2.58,4.97-3.94,10.58-3.94,16.21,0,19.44,15.82,35.26,35.26,35.26s35.26-15.82,35.26-35.26c0-7.71-2.49-14.84-6.71-20.65Z"/>
    </g>
    <ellipse cx="36.69" cy="47.68" rx="4.04" ry="4.94"/>
    <ellipse cx="63.64" cy="47.68" rx="4.04" ry="4.94"/>
    <path d="M50.83,56.21c4.04,.17,5.29,2.47,5.25,3.37s-3.7,2.54-5.5,2.46-4.9-1.11-5.29-2.47,1.5-3.53,5.54-3.36Z"/>
    <path d="M47.78,66.26c-3.11,0-3.78-2.77-3.79-2.8l.44-.1c.03,.11,.65,2.59,3.58,2.45,.63-.03,1.11-.26,1.47-.71,1.09-1.36,.62-4.19,.62-4.22l.44-.08c.02,.12,.51,3.06-.71,4.58-.44,.55-1.05,.85-1.8,.88-.09,0-.17,0-.25,0Z"/>
    <path d="M53.45,66.24c-.68,0-1.26-.24-1.72-.7-1.37-1.39-1.17-4.36-1.16-4.48l.45,.03s-.19,2.89,1.03,4.14c.4,.41,.91,.6,1.54,.56,2.94-.16,3.31-2.68,3.32-2.79l.45,.06s-.42,3.01-3.74,3.18c-.06,0-.11,0-.16,0Z"/>
    <path d="M26.5,43.59c-4.37,0-12.09-10.85-14.39-16.83-1.02-2.63-.99-4.22,.08-4.86,2.51-1.5,14.71-7.62,17.83-7.15,3.05,.45,4.13,7.24,4.31,8.59,.05,.37-.21,.71-.58,.76-.37,.05-.71-.21-.76-.58-.41-2.96-1.66-7.22-3.17-7.44-2.29-.34-13.46,4.89-16.95,6.98-.17,.1-.42,.88,.49,3.22,2.46,6.38,9.95,15.97,13.08,15.97,.09,0,.18,0,.26-.03,2.95-.59,2.3-11.47,.9-19.01-.07-.37,.17-.72,.54-.79,.36-.07,.72,.17,.79,.54,.6,3.25,3.35,19.51-1.96,20.58-.15,.03-.31,.05-.47,.05Z"/>
    <path d="M69.29,38.84c-.51,0-.73-.16-.89-.28-.72-.54-1.27-2.07,.19-9.26,.78-3.85,1.8-7.59,1.81-7.62,.1-.36,.47-.57,.83-.47,.36,.1,.57,.47,.47,.83-1.83,6.7-3.25,14.46-2.5,15.44,.5,.13,2.92-.54,8.8-4.01,4.31-2.54,8.23-5.28,9.19-6.25,.12-.12,.11-.39,.07-.6-.53-2.91-8.86-11.79-13.8-14.03-3.61-1.64-9.37,5.75-11.28,8.73-.2,.31-.62,.4-.93,.2-.31-.2-.4-.62-.2-.93,.31-.48,7.56-11.69,12.97-9.23,4.27,1.94,13.82,10.9,14.56,15.02,.17,.94-.15,1.5-.44,1.79-1.21,1.21-5.58,4.18-9.74,6.62-5.7,3.34-8.05,4.05-9.12,4.05Z"/>
  </g>
</svg>